HIERARCHY
ROOT hip
{
  OFFSET 0 0 0
  CHANNELS 6 Xposition Yposition Zposition Zrotation Yrotation Xrotation
  JOINT abdomen
  {
    OFFSET 0 20.6881 -0.73152
    CHANNELS 3 Zrotation Xrotation Yrotation
    JOINT chest
    {
      OFFSET 0 11.7043 -0.48768
      CHANNELS 3 Zrotation Xrotation Yrotation
      JOINT neck
      {
        OFFSET 0 22.1894 -2.19456
        CHANNELS 3 Zrotation Xrotation Yrotation
        JOINT head
        {
          OFFSET -0.24384 7.07133 1.2192
          CHANNELS 3 Zrotation Xrotation Yrotation
          JOINT leftEye
          {
            OFFSET 4.14528 8.04674 8.04672
            CHANNELS 3 Zrotation Xrotation Yrotation
            End Site
            {
              OFFSET 1 0 0
            }
          }
          JOINT rightEye
          {
            OFFSET -3.6576 8.04674 8.04672
            CHANNELS 3 Zrotation Xrotation Yrotation
            End Site
            {
              OFFSET 1 0 0
            }
          }
        }
      }
      JOINT rCollar
      {
        OFFSET -2.68224 19.2634 -4.8768
        CHANNELS 3 Zrotation Xrotation Yrotation
        JOINT rShldr
        {
          OFFSET -8.77824 -1.95073 1.46304
          CHANNELS 3 Zrotation Xrotation Yrotation
          JOINT rForeArm
          {
            OFFSET -28.1742 -1.7115 0.48768
            CHANNELS 3 Zrotation Xrotation Yrotation
            JOINT rHand
            {
              OFFSET -22.5879 0.773209 7.07136
              CHANNELS 3 Zrotation Xrotation Yrotation
              JOINT rThumb1
              {
                OFFSET -1.2192 -0.487915 3.41376
                CHANNELS 3 Zrotation Xrotation Yrotation
                JOINT rThumb2
                {
                  OFFSET -3.37035 -0.52449 3.41376
                  CHANNELS 3 Zrotation Xrotation Yrotation
                  End Site
                  {
                    OFFSET -1.78271 -1.18214 1.43049
                  }
                }
              }
              JOINT rIndex1
              {
                OFFSET -7.75947 0.938293 5.60832
                CHANNELS 3 Zrotation Xrotation Yrotation
                JOINT rIndex2
                {
                  OFFSET -2.54057 -0.884171 1.56538
                  CHANNELS 3 Zrotation Xrotation Yrotation
                  End Site
                  {
                    OFFSET -1.62519 -0.234802 1.16502
                  }
                }
              }
              JOINT rMid1
              {
                OFFSET -8.24714 1.18213 3.41376
                CHANNELS 3 Zrotation Xrotation Yrotation
                JOINT rMid2
                {
                  OFFSET -3.10165 -0.590103 1.0647
                  CHANNELS 3 Zrotation Xrotation Yrotation
                  End Site
                  {
                    OFFSET -2.48547 -0.328903 0.83742
                  }
                }
              }
              JOINT rRing1
              {
                OFFSET -8.82822 0.546677 1.51678
                CHANNELS 3 Zrotation Xrotation Yrotation
                JOINT rRing2
                {
                  OFFSET -2.60934 -0.819778 -0.0198488
                  CHANNELS 3 Zrotation Xrotation Yrotation
                  End Site
                  {
                    OFFSET -2.33842 -0.294052 0.168128
                  }
                }
              }
              JOINT rPinky1
              {
                OFFSET -8.27202 -0.0477905 -0.4584
                CHANNELS 3 Zrotation Xrotation Yrotation
                JOINT rPinky2
                {
                  OFFSET -1.82734 -0.647385 -0.700984
                  CHANNELS 3 Zrotation Xrotation Yrotation
                  End Site
                  {
                    OFFSET -1.69225 -0.51767 -0.607171
                  }
                }
              }
            }
          }
        }
      }
      JOINT lCollar
      {
        OFFSET 2.68224 19.2634 -4.8768
        CHANNELS 3 Zrotation Xrotation Yrotation
        JOINT lShldr
        {
          OFFSET 8.77824 -1.95073 1.46304
          CHANNELS 3 Zrotation Xrotation Yrotation
          JOINT lForeArm
          {
            OFFSET 28.1742 -1.7115 0.48768
            CHANNELS 3 Zrotation Xrotation Yrotation
            JOINT lHand
            {
              OFFSET 22.5879 0.773209 7.07136
              CHANNELS 3 Zrotation Xrotation Yrotation
              JOINT lThumb1
              {
                OFFSET 1.2192 -0.487915 3.41376
                CHANNELS 3 Zrotation Xrotation Yrotation
                JOINT lThumb2
                {
                  OFFSET 3.37035 -0.52449 3.41376
                  CHANNELS 3 Zrotation Xrotation Yrotation
                  End Site
                  {
                    OFFSET 1.78271 -1.18214 1.43049
                  }
                }
              }
              JOINT lIndex1
              {
                OFFSET 7.75947 0.938293 5.60832
                CHANNELS 3 Zrotation Xrotation Yrotation
                JOINT lIndex2
                {
                  OFFSET 2.54057 -0.884171 1.56538
                  CHANNELS 3 Zrotation Xrotation Yrotation
                  End Site
                  {
                    OFFSET 1.62519 -0.234802 1.16502
                  }
                }
              }
              JOINT lMid1
              {
                OFFSET 8.24714 1.18213 3.41376
                CHANNELS 3 Zrotation Xrotation Yrotation
                JOINT lMid2
                {
                  OFFSET 3.10165 -0.590103 1.0647
                  CHANNELS 3 Zrotation Xrotation Yrotation
                  End Site
                  {
                    OFFSET 2.48547 -0.328903 0.83742
                  }
                }
              }
              JOINT lRing1
              {
                OFFSET 8.82822 0.546677 1.51678
                CHANNELS 3 Zrotation Xrotation Yrotation
                JOINT lRing2
                {
                  OFFSET 2.60934 -0.819778 -0.0198488
                  CHANNELS 3 Zrotation Xrotation Yrotation
                  End Site
                  {
                    OFFSET 2.33842 -0.294052 0.168128
                  }
                }
              }
              JOINT lPinky1
              {
                OFFSET 8.27202 -0.0477905 -0.4584
                CHANNELS 3 Zrotation Xrotation Yrotation
                JOINT lPinky2
                {
                  OFFSET 1.82734 -0.647385 -0.700984
                  CHANNELS 3 Zrotation Xrotation Yrotation
                  End Site
                  {
                    OFFSET 1.69225 -0.51767 -0.607171
                  }
                }
              }
            }
          }
        }
      }
    }
  }
  JOINT rButtock
  {
    OFFSET -8.77824 4.35084 1.2192
    CHANNELS 3 Zrotation Xrotation Yrotation
    JOINT rThigh
    {
      OFFSET 0 -1.70687 -2.19456
      CHANNELS 3 Zrotation Xrotation Yrotation
      JOINT rShin
      {
        OFFSET 0 -36.8199 0.73152
        CHANNELS 3 Zrotation Xrotation Yrotation
        JOINT rFoot
        {
          OFFSET 0.73152 -45.1104 -5.12064
          CHANNELS 3 Zrotation Xrotation Yrotation
          End Site
          {
            OFFSET -1.1221 -3.69964 12.103
          }
        }
      }
    }
  }
  JOINT lButtock
  {
    OFFSET 8.77824 4.35084 1.2192
    CHANNELS 3 Zrotation Xrotation Yrotation
    JOINT lThigh
    {
      OFFSET 0 -1.70687 -2.19456
      CHANNELS 3 Zrotation Xrotation Yrotation
      JOINT lShin
      {
        OFFSET 0 -36.8199 0.73152
        CHANNELS 3 Zrotation Xrotation Yrotation
        JOINT lFoot
        {
          OFFSET -0.73152 -45.1104 -5.12064
          CHANNELS 3 Zrotation Xrotation Yrotation
          End Site
          {
            OFFSET 1.1221 -3.69964 12.103
          }
        }
      }
    }
  }
}
MOTION
Frames:	4
Frame Time:	0.03333333333333333
96.846436 79.79836 -61.33594 190.45393 123.65148 -173.8962 2.150447 -10.345749 -9.14874 3.1905472 -1.4347279 -1.8551247 -0.23907736 6.559122 4.490341 -21.233192 4.108617 10.759084 -0.08415636 0.072643 -0.085299104 0.029491741 -0.026438594 -0.10353686 0.040476434 -0.06498943 -0.08392391 54.86105 9.696341 32.259007 -26.04397 -23.839815 57.031982 -0.4332272 -17.733082 -2.9489663 -0.14314997 0.036502875 0.036989894 -0.04309134 0.054301042 -0.0047292653 0.06756764 -0.0054838946 0.060384847 7.7605424 5.439797 0.38814986 0.07991912 0.07052111 -0.056278676 2.9032269 0.90062124 0.025129545 -0.04581776 0.03977745 0.0880327 10.352243 0.627984 -0.013458567 0.057912104 -0.07400555 0.039961193 2.200695 -0.7004813 -0.23493245 -0.0076862304 -8.1215214e-05 -0.124372 -3.7332635 -31.124598 -86.48705 25.036005 -21.542633 -53.021515 5.9557 -50.292515 10.682077 0.0055551315 -0.03437842 -0.06518695 0.06668142 0.063245624 0.033293914 0.1669598 0.0056638676 -0.04904684 -7.763801 5.483392 -0.2912475 0.07739852 -0.0024265847 0.011470235 -2.9657054 0.8846808 0.021229882 0.10739197 -0.09622034 0.036015105 -10.370305 0.64752066 -0.04363418 -0.11741624 -0.062128145 -0.099409506 -2.169218 -0.5747246 0.21745251 0.062294897 0.032402735 -0.0761085 -13.683247 -34.40814 -4.0116773 -3.2126257 77.963425 3.298438 -1.6674871 3.0491374 -12.340455 -0.024728458 -0.15782896 -0.08671033 -8.058341 -23.801321 -3.8343058 -0.17584476 35.95867 -0.46586403 4.4930177 -21.161959 7.64213
98.57619 80.63088 -60.852398 190.62848 124.148026 -173.46884 1.8652648 -11.289909 -11.16998 4.0362988 -1.178046 -2.3491297 -0.1003749 6.770274 5.137422 -22.47226 3.158264 11.787623 -0.06555487 0.060817182 -0.08443521 0.038428936 -0.03291484 -0.09313846 0.042789306 -0.062704705 -0.08207945 54.775135 11.494367 32.580803 -26.193071 -25.192295 59.470295 -0.24082613 -18.339024 -3.0861251 -0.14531797 0.026802087 0.022276582 -0.057739373 0.047467276 -0.009759486 0.077177666 -0.0068920874 0.047410794 7.7642026 5.439707 0.38317224 0.074451044 0.062181026 -0.058444057 2.920445 0.8960958 0.026591526 -0.04219125 0.018056398 0.08957192 10.363367 0.61803716 -0.019941857 0.054321878 -0.07710461 0.03505498 2.215613 -0.68844956 -0.22994328 0.010014844 -0.013470306 -0.11762195 1.6191308 -31.786709 -84.58931 23.906994 -19.478613 -49.729652 4.166617 -42.241158 8.260141 -0.0027274599 -0.041080277 -0.05623999 0.06749742 0.068692915 0.039165102 0.16510092 0.009474833 -0.03464325 -7.776673 5.483418 -0.28453535 0.06721845 0.015653059 0.0063330256 -2.9686644 0.88515025 0.03686696 0.1078903 -0.08974735 0.047920205 -10.382865 0.64095527 -0.038751878 -0.111725464 -0.06660227 -0.09752058 -2.168068 -0.5704373 0.20929098 0.055733968 0.015045279 -0.06639031 -11.415852 -39.860138 -4.788363 -2.6338027 75.977684 2.7880106 -1.8859577 0.5987672 -11.0023575 -0.009736247 -0.14238206 -0.08871515 -8.054201 -21.561441 -4.432192 -0.27717286 32.546795 -0.36435455 4.38703 -20.88582 6.923767
100.299446 81.44729 -60.287983 189.71405 124.83842 -171.69862 1.7248622 -11.696465 -13.118474 4.650127 -1.1943321 -2.946755 0.08887469 6.7470427 5.8120074 -23.192915 2.3833313 12.8037615 -0.047803316 0.049848046 -0.09219158 0.041949634 -0.038038556 -0.08120557 0.04617512 -0.058938954 -0.079168774 54.60588 13.316216 31.72779 -26.399595 -26.753275 62.16834 0.019568084 -18.924671 -3.2629232 -0.14628354 0.024450101 0.013611729 -0.07207402 0.04140231 -0.016176129 0.087122954 -0.014057436 0.03792233 7.750715 5.4307294 0.37734553 0.07082607 0.054849457 -0.06776331 2.9296765 0.88627946 0.027818184 -0.04132403 0.004773775 0.08962555 10.353834 0.61011875 -0.01790107 0.05156942 -0.0826874 0.026743071 2.2239847 -0.67289454 -0.2231673 0.022399284 -0.029034972 -0.110876486 7.278866 -32.213417 -81.80286 22.867924 -17.64192 -46.771572 2.36689 -33.04563 5.9082255 -0.009487879 -0.04435567 -0.052148703 0.07161314 0.07332325 0.049891703 0.16503721 0.008185915 -0.02293588 -7.776275 5.4666686 -0.28588933 0.055559903 0.031738847 -0.0004330233 -2.9616423 0.89172846 0.043712195 0.10412564 -0.08044324 0.062000558 -10.371207 0.6313945 -0.03139112 -0.10705182 -0.07031743 -0.0996647 -2.16039 -0.56977147 0.1975201 0.04268937 0.0018263285 -0.060412113 -9.385103 -42.97248 -5.0221252 -1.6516342 70.6337 1.8391812 -1.9073552 -1.2279476 -9.748582 -0.00042072363 -0.12377913 -0.0910185 -7.973129 -18.671745 -4.0163236 -0.34081325 29.102585 -0.21648519 3.81778 -20.691465 6.1440845
101.958084 82.30056 -59.634693 188.30978 125.13535 -170.05707 1.795448 -11.370781 -14.877603 4.9466095 -1.4259344 -3.55557 0.4159961 6.5649705 6.4672947 -23.415606 1.5903039 13.721975 -0.030067451 0.03817871 -0.10215131 0.03999636 -0.042601272 -0.06910129 0.049181588 -0.0561985 -0.07272107 54.18439 15.274558 29.77494 -26.720331 -28.27608 64.738396 0.20986697 -19.745653 -3.4015718 -0.14276257 0.027915515 0.010537679 -0.08063395 0.038780957 -0.023522103 0.09452901 -0.02639073 0.03387672 7.724532 5.4210157 0.37034404 0.068181545 0.048568938 -0.08065135 2.932006 0.87088007 0.028419882 -0.042456828 -0.0022985786 0.086235695 10.332039 0.60184723 -0.011995359 0.04827679 -0.08679803 0.016487543 2.2256331 -0.6539086 -0.21634702 0.03219188 -0.044549372 -0.1048238 11.764847 -32.10212 -78.3897 21.97186 -16.165403 -44.228725 1.001414 -23.506948 3.9751494 -0.012096691 -0.044695582 -0.052238353 0.07906744 0.074245326 0.06416792 0.1641153 0.004713684 -0.013110281 -7.766962 5.4380975 -0.28898227 0.04257945 0.041617166 -0.0077209417 -2.9449685 0.9008526 0.041587044 0.09827969 -0.067817315 0.074848145 -10.346291 0.61823463 -0.024361257 -0.10303732 -0.0744144 -0.10314428 -2.1470754 -0.5701404 0.18386051 0.029261757 -0.0072342637 -0.05826362 -7.562595 -43.73669 -3.749842 -0.6844151 62.273468 0.9441033 -1.6400485 -1.6500462 -9.157307 0.0023265064 -0.10450253 -0.09300649 -7.326503 -15.296051 -3.0114837 -0.3825205 25.39069 -0.031736847 2.9255545 -20.192225 5.0962133
